<svg version="1.2" xmlns="http://www.w3.org/2000/svg" viewBox="0 0 400 400" width="600" height="600">
	<title>logo-svg</title>
	<style>
		.s0 { fill: #53576d } 
		.s1 { fill: #94c995 } 
	</style>
	<g id="Screenshot 2024-11-17 203758">
		<path id="Path 0" class="s0" d="m279.1 1.3c-1.1 0.7-20.9 7.5-44 15.1l-42.1 13.8c-55-17.3-73.9-22.9-77.5-23.7-5.9-1.2-8.2-0.9-23 3.3-9 2.6-22.3 6.5-29.6 8.7-7.2 2.2-13.7 4.5-14.4 5.1-0.8 0.6 2 2.5 6.6 4.5 4.3 1.9 16.7 6.7 27.6 10.6 10.8 3.8 32.1 11.7 47.2 17.4 15.2 5.8 35.8 13.4 45.8 16.9l18.2 6.4c-1.3 79.4-2.2 133.8-2.9 172.1-0.7 38.3-1.3 87.2-1.3 108.7 0 30.7 0.4 39 1.7 38.7 0.9-0.3 13.4-8.1 27.7-17.4 14.4-9.4 26.6-18 27.3-19.3 0.6-1.3 1.7-8 2.4-15.1 0.7-7 1.6-23.2 2.1-35.8l1-23c72.7-145.6 95.4-191.6 97.3-196.1 2.6-6.3 4-13.4 6-30.9 1.4-12.4 2.8-27.2 3.3-32.8l0.7-10.2c-10.7-2.9-25.8-7.1-40.4-11.1-14.6-4-29.1-7.2-32.2-7.2-3 0-6.4 0.6-7.5 1.3z"/>
		<path id="Path 0" class="s1" d="m40.8 27.8c-1.7 2.4-9.3 13.7-16.8 25.2-7.5 11.5-13.8 21.6-14 22.4-0.2 0.7 6.3 4.6 14.5 8.5 8.1 3.8 23.4 10.9 33.8 15.6 10.5 4.7 29.4 13.1 42.1 18.8l23 10.2c1.3 30.2 2.4 72.9 3.3 114.5 0.8 41.5 1.9 84.9 2.4 96.4l0.8 20.8c7.2 6.1 20.3 15.2 33.9 24.2 13.5 8.9 25.2 15.9 25.9 15.6 0.9-0.4 1.3-15.2 1.3-40.4 0-21.9 0.6-68.7 1.3-104.1 0.7-35.4 1.6-89.5 2.1-120.3l0.8-55.8c-20-7.6-34.1-12.8-44.2-16.5-10.1-3.7-30-11-44-16.4-14.1-5.3-33.5-12.6-43.1-16.3-9.5-3.6-17.9-6.6-18.6-6.6-0.7 0-2.7 1.9-4.5 4.2zm263.2 82.2c-1.1 0.5-4.9 2.7-8.5 4.9-3.6 2.1-8.8 5.1-11.4 6.5-2.7 1.5-7.4 4.1-10.5 5.8-3.2 1.7-6.1 3.9-6.7 4.9-0.5 1-1.9 1.8-2.9 1.8-1.1 0-2.7 1.7-3.5 3.6-0.8 2.1-1.8 16.4-2.3 32.9-0.8 27.3-0.7 29.2 1.5 29.2 1.3 0 2.7-1 3.2-2.3 0.5-1.2 2.5-4.6 4.4-7.5 2-2.9 9.5-16.2 16.7-29.6 7.2-13.4 15.8-29.8 19.2-36.4 3.3-6.7 6.1-12.8 6.1-13.5 0-0.7-0.8-1.3-1.7-1.2-0.9 0-2.5 0.5-3.6 0.9z"/>
	</g>
</svg>